<svg preserveAspectRatio="none" width="100%" height="100%" overflow="visible" style="display: block;" viewBox="0 0 18 18" fill="none" xmlns="http://www.w3.org/2000/svg">
<g id="form-svgrepo-com 1">
<g id="Vector">
</g>
<g id="Vector_2">
</g>
<g id="Group">
<path id="Vector_3" d="M12.511 5.2203H15.373C15.4229 5.22141 15.4726 5.21239 15.5189 5.19378C15.5653 5.17518 15.6074 5.14738 15.6427 5.11205C15.6781 5.07673 15.7059 5.03462 15.7245 4.98826C15.7431 4.94189 15.7521 4.89225 15.751 4.8423C15.7537 4.79215 15.7454 4.74202 15.7268 4.69539C15.7081 4.64876 15.6795 4.60676 15.643 4.5723L12.079 1.0083C12.0445 0.971765 12.0025 0.943175 11.9559 0.924524C11.9093 0.905872 11.8591 0.897607 11.809 0.900304C11.759 0.899198 11.7094 0.908219 11.663 0.926824C11.6167 0.945429 11.5746 0.973231 11.5392 1.00855C11.5039 1.04388 11.4761 1.08599 11.4575 1.13235C11.4389 1.17871 11.4299 1.22836 11.431 1.2783V4.1403C11.431 4.42674 11.5448 4.70144 11.7473 4.90398C11.9499 5.10652 12.2246 5.2203 12.511 5.2203Z" fill="var(--fill-0, #0086C9)"/>
<path id="Vector_4" d="M15.2093 6.8398H11.4293C10.9996 6.8398 10.5876 6.66913 10.2837 6.36532C9.97993 6.06151 9.80926 5.64946 9.80926 5.2198V1.43981C9.80926 1.29659 9.75236 1.15924 9.65109 1.05797C9.54983 0.956698 9.41247 0.899805 9.26926 0.899805H3.86926C3.43961 0.899805 3.02755 1.07048 2.72374 1.37429C2.41993 1.6781 2.24926 2.09015 2.24926 2.5198V15.4798C2.24926 15.9095 2.41993 16.3215 2.72374 16.6253C3.02755 16.9291 3.43961 17.0998 3.86926 17.0998H14.1293C14.5589 17.0998 14.971 16.9291 15.2748 16.6253C15.5786 16.3215 15.7493 15.9095 15.7493 15.4798V7.3798C15.7493 7.23659 15.6924 7.09924 15.5911 6.99797C15.4898 6.8967 15.3525 6.8398 15.2093 6.8398ZM4.40926 6.2998C4.40926 6.15659 4.46615 6.01924 4.56742 5.91797C4.66869 5.8167 4.80604 5.7598 4.94926 5.7598H7.15786C7.30107 5.7598 7.43843 5.8167 7.53969 5.91797C7.64096 6.01924 7.69786 6.15659 7.69786 6.2998V6.8398C7.69786 6.98302 7.64096 7.12037 7.53969 7.22164C7.43843 7.32291 7.30107 7.3798 7.15786 7.3798H4.94926C4.87773 7.38205 4.80651 7.36962 4.73998 7.34328C4.67344 7.31694 4.61301 7.27725 4.56242 7.22665C4.51182 7.17605 4.47212 7.11562 4.44578 7.04908C4.41944 6.98255 4.40701 6.91133 4.40926 6.8398V6.2998ZM12.5093 13.3198C12.5093 13.463 12.4524 13.6004 12.3511 13.7016C12.2498 13.8029 12.1125 13.8598 11.9693 13.8598H4.94926C4.80604 13.8598 4.66869 13.8029 4.56742 13.7016C4.46615 13.6004 4.40926 13.463 4.40926 13.3198V12.7798C4.40926 12.6366 4.46615 12.4992 4.56742 12.398C4.66869 12.2967 4.80604 12.2398 4.94926 12.2398H11.9693C12.1125 12.2398 12.2498 12.2967 12.3511 12.398C12.4524 12.4992 12.5093 12.6366 12.5093 12.7798V13.3198ZM13.5893 10.0798C13.5893 10.223 13.5324 10.3604 13.4311 10.4616C13.3298 10.5629 13.1925 10.6198 13.0493 10.6198H4.94926C4.80604 10.6198 4.66869 10.5629 4.56742 10.4616C4.46615 10.3604 4.40926 10.223 4.40926 10.0798V9.5398C4.40926 9.39659 4.46615 9.25924 4.56742 9.15797C4.66869 9.0567 4.80604 8.9998 4.94926 8.9998H13.0493C13.1925 8.9998 13.3298 9.0567 13.4311 9.15797C13.5324 9.25924 13.5893 9.39659 13.5893 9.5398V10.0798Z" fill="var(--fill-0, #0086C9)"/>
</g>
</g>
</svg>
