<svg preserveAspectRatio="none" width="100%" height="100%" overflow="visible" style="display: block;" viewBox="0 0 18 18" fill="none" xmlns="http://www.w3.org/2000/svg">
<g id="phone-calling-rounded-svgrepo-com 1">
<path id="Vector" d="M7.52904 3.98734L8.01579 4.85953C8.45506 5.64664 8.27874 6.6792 7.58686 7.37106C7.58686 7.37106 6.74775 8.21031 8.26921 9.73183C9.79021 11.2528 10.63 10.4142 10.63 10.4142C11.3219 9.72231 12.3544 9.54598 13.1415 9.98526L14.0137 10.472C15.2023 11.1353 15.3426 12.8021 14.2979 13.8469C13.6702 14.4746 12.9011 14.9631 12.051 14.9953C10.6199 15.0496 8.18956 14.6874 5.75161 12.2494C3.31369 9.81148 2.9515 7.38112 3.00575 5.95003C3.03798 5.09991 3.52644 4.33088 4.1542 3.70313C5.19891 2.65842 6.86572 2.79879 7.52904 3.98734Z" fill="var(--fill-0, #424242)"/>
<path id="Vector_2" d="M9.94378 1.40967C9.99343 1.103 10.2833 0.89497 10.59 0.944613C10.609 0.94825 10.6701 0.959665 10.702 0.96679C10.7661 0.981048 10.8553 1.00299 10.9666 1.03541C11.1892 1.10024 11.5002 1.20705 11.8734 1.37814C12.6206 1.72071 13.615 2.31996 14.6468 3.35181C15.6787 4.38366 16.2779 5.37802 16.6204 6.12523C16.7916 6.49844 16.8984 6.80939 16.9632 7.03198C16.9956 7.14329 17.0176 7.23256 17.0318 7.29655C17.0389 7.32855 17.0442 7.35425 17.0478 7.37323L17.0521 7.39663C17.1017 7.70327 16.8956 8.00522 16.5889 8.05487C16.2832 8.10437 15.9951 7.89729 15.9442 7.59212C15.9427 7.58387 15.9383 7.56189 15.9337 7.54112C15.9244 7.49957 15.9085 7.4337 15.8831 7.34658C15.8323 7.17233 15.7442 6.91334 15.5978 6.59408C15.3055 5.95634 14.7797 5.07571 13.8513 4.14731C12.9229 3.21891 12.0423 2.69317 11.4046 2.4008C11.0853 2.25443 10.8263 2.16628 10.652 2.11552C10.5649 2.09015 10.4554 2.06502 10.4139 2.05577C10.1086 2.0049 9.89428 1.71546 9.94378 1.40967Z" fill="var(--fill-0, #424242)"/>
<path id="Vector_3" fill-rule="evenodd" clip-rule="evenodd" d="M10.1141 3.9972C10.1995 3.69849 10.5108 3.52552 10.8095 3.61086L10.655 4.15173C10.8095 3.61086 10.8095 3.61086 10.8095 3.61086L10.8107 3.61118L10.8118 3.61151L10.8143 3.61224L10.8201 3.61398L10.835 3.6186C10.8462 3.62221 10.8604 3.62692 10.8772 3.6329C10.9109 3.64485 10.9554 3.66185 11.01 3.68525C11.1193 3.73208 11.2685 3.80439 11.452 3.91293C11.819 4.13019 12.3202 4.49107 12.9089 5.0798C13.4977 5.66853 13.8585 6.16967 14.0758 6.53677C14.1843 6.72015 14.2566 6.86945 14.3035 6.97872C14.3269 7.03332 14.3439 7.07784 14.3558 7.11152C14.3618 7.12836 14.3665 7.14248 14.3702 7.15379L14.3747 7.16863L14.3765 7.17444L14.3772 7.17694L14.3775 7.1781C14.3775 7.1781 14.3779 7.17918 13.837 7.33371L14.3779 7.17918C14.4632 7.47788 14.2902 7.7892 13.9916 7.87455C13.6954 7.95915 13.3868 7.78987 13.2983 7.49582L13.2956 7.48773C13.2916 7.47646 13.2833 7.45428 13.2695 7.42188C13.2417 7.35712 13.1914 7.2512 13.1077 7.10976C12.9404 6.8272 12.6384 6.40026 12.1134 5.87529C11.5885 5.35033 11.1615 5.04831 10.879 4.88108C10.7375 4.79736 10.6316 4.74704 10.5668 4.71929C10.5344 4.70541 10.5122 4.69713 10.501 4.69313L10.4929 4.69036C10.1989 4.60195 10.0295 4.29336 10.1141 3.9972Z" fill="var(--fill-0, #424242)"/>
</g>
</svg>
