<svg preserveAspectRatio="none" width="100%" height="100%" overflow="visible" style="display: block;" viewBox="0 0 130.14 20.2539" fill="none" xmlns="http://www.w3.org/2000/svg">
<g id="Group 1">
<path id="n" d="M7.09995 9.68662C4.89845 9.68662 3.90778 11.4753 3.90778 13.5668V19.8961H0.000118256V13.0989C0.000118256 9.13625 2.33921 5.88904 7.09995 5.88904C11.8607 5.88904 14.2548 9.10873 14.2548 13.0989V19.8961H10.3472V13.5668C10.3472 11.4753 9.32896 9.68662 7.09995 9.68662Z" fill="var(--fill-0, #131313)"/>
<path id="a" d="M24.0545 20.2539C20.0918 20.2539 17.3124 17.0067 17.3124 13.044C17.3124 9.1363 20.5045 5.86157 24.6874 5.86157C28.9528 5.86157 32.0899 8.94367 32.0899 13.044V19.8961H28.3749V18.3C27.4117 19.5109 25.9257 20.2539 24.0545 20.2539ZM24.6874 16.5939C26.6963 16.5939 28.1823 14.9978 28.1823 13.0715C28.1823 11.1452 26.6963 9.54908 24.6874 9.54908C22.6785 9.54908 21.22 11.1452 21.22 13.0715C21.22 14.9978 22.6785 16.5939 24.6874 16.5939Z" fill="var(--fill-0, #131313)"/>
<path id="m" d="M52.4218 5.77899C56.8523 5.77899 59.1088 8.97116 59.1088 12.7687V19.8961H55.2012V13.4292C55.2012 11.3378 54.2931 9.57657 52.1466 9.57657C50.0277 9.57657 49.1196 11.3103 49.1196 13.3742V19.8961H45.2119V13.4017C45.2119 11.3103 44.3038 9.57657 42.1848 9.57657C40.0109 9.57657 39.1578 11.3378 39.1578 13.4017V19.8961H35.2501V12.7687C35.2501 8.97116 37.4791 5.77899 41.8821 5.77899C44.4964 5.77899 46.3952 6.93478 47.1932 8.80605C48.0463 6.93478 49.9726 5.77899 52.4218 5.77899Z" fill="var(--fill-0, #131313)"/>
<path id="u" d="M69.7147 16.4837C71.7236 16.4837 72.7417 14.695 72.7417 12.5761V6.27429H76.6494V13.0439C76.6494 17.0341 74.2828 20.2538 69.7147 20.2538C65.1741 20.2538 62.8075 17.0341 62.8075 13.0439V6.27429H66.7151V12.6036C66.7151 14.695 67.7058 16.4837 69.7147 16.4837Z" fill="var(--fill-0, #131313)"/>
<path id="n_2" d="M86.6 9.68662C84.3985 9.68662 83.4078 11.4753 83.4078 13.5668V19.8961H79.5001V13.0989C79.5001 9.13625 81.8392 5.88904 86.6 5.88904C91.3607 5.88904 93.7548 9.10873 93.7548 13.0989V19.8961H89.8472V13.5668C89.8472 11.4753 88.829 9.68662 86.6 9.68662Z" fill="var(--fill-0, #131313)"/>
<path id="a_2" d="M103.554 20.2539C99.5918 20.2539 96.8124 17.0067 96.8124 13.044C96.8124 9.1363 100.005 5.86157 104.187 5.86157C108.453 5.86157 111.59 8.94367 111.59 13.044V19.8961H107.875V18.3C106.912 19.5109 105.426 20.2539 103.554 20.2539ZM104.187 16.5939C106.196 16.5939 107.682 14.9978 107.682 13.0715C107.682 11.1452 106.196 9.54908 104.187 9.54908C102.179 9.54908 100.72 11.1452 100.72 13.0715C100.72 14.9978 102.179 16.5939 104.187 16.5939Z" fill="var(--fill-0, #131313)"/>
<path id="h" d="M119.959 19.896H116.051V0H119.959V7.09983C120.977 6.35682 122.325 5.88901 123.811 5.88901C127.967 5.88901 130.14 8.5308 130.14 12.8237V19.896L126.233 19.8685V13.209C126.233 11.2827 125.187 9.57651 123.206 9.57651C121.252 9.57651 119.959 11.1176 119.959 13.264V19.896Z" fill="var(--fill-0, #131313)"/>
</g>
</svg>
