<svg preserveAspectRatio="none" width="100%" height="100%" overflow="visible" style="display: block;" viewBox="0 0 25.8867 21.6198" fill="none" xmlns="http://www.w3.org/2000/svg">
<g id="Frame 2147258354">
<path id="Line 12" d="M0.572559 5.08708L0.57256 3.21293L2.0451 2.54341C8.06912 -0.000260143 12.8883 5.62236 17.0382 8.29999C20.3581 10.4421 23.8655 9.01385 25.2041 8.03197L25.2041 10.1738L23.33 10.977C17.9753 13.1189 12.219 6.82716 8.87233 4.68529C6.19498 2.97179 2.22359 4.23919 0.572559 5.08708Z" fill="var(--fill-0, #131313)"/>
<path id="Vector 1194233871" d="M0.703244 15.3084V17.1354C4.92109 15.2563 8.17235 16.3524 9.27075 17.1354V15.5694C6.10736 13.6902 2.241 14.6124 0.703244 15.3084Z" fill="var(--fill-0, #131313)"/>
<path id="Vector 1194233875" d="M0.703244 15.3084V17.1354C4.92109 15.2563 8.17235 16.3524 9.27075 17.1354V15.5694C6.10736 13.6902 2.241 14.6124 0.703244 15.3084Z" fill="var(--fill-0, #131313)"/>
<path id="Vector 1194233876" d="M0.569949 18.789V20.616C4.7878 18.7369 8.03906 19.833 9.13745 20.616V19.05C5.97407 17.1708 2.10771 18.093 0.569949 18.789Z" fill="var(--fill-0, #131313)"/>
<path id="Vector 1194233873" d="M16.6342 5.89021V4.01607C20.918 5.94367 24.22 4.81924 25.3356 4.01607V5.62248C22.1228 7.55017 18.196 6.60417 16.6342 5.89021Z" fill="var(--fill-0, #131313)"/>
<path id="Vector 1194233874" d="M16.6342 1.87414V0C20.918 1.9276 24.22 0.803167 25.3356 0V1.60641C22.1228 3.53409 18.196 2.5881 16.6342 1.87414Z" fill="var(--fill-0, #131313)"/>
<path id="Line 15" d="M0.604734 9.32378L0.604735 7.44963L2.07727 6.78011C8.1013 4.23644 12.9205 9.85905 17.0704 12.5367C20.3903 14.6788 23.8976 13.2506 25.2363 12.2687L25.2363 14.4105L23.3622 15.2137C18.0075 17.3556 12.2512 11.0639 8.9045 8.92198C6.22716 7.20848 2.25576 8.47589 0.604734 9.32378Z" fill="var(--fill-0, #131313)"/>
<path id="Line 16" d="M0.604734 13.6076L0.604735 11.7334L2.07727 11.0639C8.1013 8.52025 12.9205 14.1429 17.0704 16.8205C20.3903 18.9626 23.8976 17.5344 25.2363 16.5525L25.2363 18.6944L23.3622 19.4976C18.0075 21.6394 12.2512 15.3477 8.9045 13.2058C6.22716 11.4923 2.25576 12.7597 0.604734 13.6076Z" fill="var(--fill-0, #131313)"/>
</g>
</svg>
