<svg preserveAspectRatio="xMidYMid meet" width="100%" height="100%" overflow="visible" style="display: block;" viewBox="0 0 45.616 37.9758" fill="none" xmlns="http://www.w3.org/2000/svg">
<g id="Vector">
<path d="M0.00235787 9.37058L0.00235903 5.91834L2.71483 4.68505C13.8113 -0.000487046 22.6885 10.3566 30.3327 15.2889C36.4481 19.2347 42.9088 16.6038 45.3746 14.7952L45.3746 18.7406L41.9224 20.2201C32.0589 24.1655 21.4556 12.5759 15.2908 8.63047C10.3591 5.47413 3.04361 7.80874 0.00235787 9.37058Z" fill="var(--fill-0, #FAF7EB)"/>
<path d="M0.244646 28.1993V31.5647C8.01408 28.1033 14.003 30.1224 16.0263 31.5647V28.6801C10.1992 25.2186 3.07725 26.9173 0.244646 28.1993Z" fill="var(--fill-0, #FAF7EB)"/>
<path d="M0.244646 28.1993V31.5647C8.01408 28.1033 14.003 30.1224 16.0263 31.5647V28.6801C10.1992 25.2186 3.07725 26.9173 0.244646 28.1993Z" fill="var(--fill-0, #FAF7EB)"/>
<path d="M0 34.6105V37.9758C7.76943 34.5145 13.7584 36.5336 15.7817 37.9758V35.0912C9.95459 31.6298 2.83261 33.3284 0 34.6105Z" fill="var(--fill-0, #FAF7EB)"/>
<path d="M29.5877 10.851V7.39873C37.4786 10.9494 43.5611 8.87819 45.616 7.39873V10.3578C39.6979 13.9087 32.4646 12.1661 29.5877 10.851Z" fill="var(--fill-0, #FAF7EB)"/>
<path d="M29.5877 3.45224V0C37.4786 3.55072 43.5611 1.47946 45.616 0V2.95906C39.6979 6.50993 32.4646 4.76738 29.5877 3.45224Z" fill="var(--fill-0, #FAF7EB)"/>
<path d="M0.0599215 17.1759L0.0599227 13.7236L2.77239 12.4903C13.8689 7.80479 22.7461 18.1619 30.3903 23.0942C36.5057 27.04 42.9663 24.4091 45.4322 22.6005L45.4322 26.5459L41.98 28.0254C32.1164 31.9708 21.5131 20.3812 15.3484 16.4357C10.4166 13.2794 3.10118 15.614 0.0599215 17.1759Z" fill="var(--fill-0, #FAF7EB)"/>
<path d="M0.0599215 25.0657L0.0599227 21.6134L2.77239 20.3801C13.8689 15.6946 22.7461 26.0517 30.3903 30.984C36.5057 34.9298 42.9663 32.2989 45.4322 30.4903L45.4322 34.4357L41.98 35.9152C32.1164 39.8606 21.5131 28.271 15.3484 24.3256C10.4166 21.1692 3.10118 23.5038 0.0599215 25.0657Z" fill="var(--fill-0, #FAF7EB)"/>
</g>
</svg>
